# xmcd
#
# Track frame offsets:
#	150
#	23545
#	44267
#	54399
#	76087
#	104110
#	128488
#	140546
#	163903
#	182674
#	195941
#	209514
#
# Disc length: 3063 seconds
#
# Revision: 0
# Processed by: cddbd v1.5.2PL0 Copyright (c) Steve Scherf et al.
# Submitted via: dBpowerAMP V4.0
#
DISCID=9c0bf50c
DTITLE=Hedvig Hanson - Tule mu juurde
DYEAR=2005
DGENRE=Easy Listening
TTITLE0=Ehk nüüd
TTITLE1=Kui tahad olla hea
TTITLE2=Kevadöö
TTITLE3=Ma tulen, sa lähed
TTITLE4=See pole see
TTITLE5=Üksi keset ööd
TTITLE6=Sume intro
TTITLE7=Sind igatsen nii
TTITLE8=Kas sina tead?
TTITLE9=Ootan sind
TTITLE10=Tuuled tulid
TTITLE11=Kui mind kutsud sa
EXTD=
EXTT0=
EXTT1=
EXTT2=
EXTT3=
EXTT4=
EXTT5=
EXTT6=
EXTT7=
EXTT8=
EXTT9=
EXTT10=
EXTT11=
PLAYORDER=
